<?xml version="1.0" encoding="UTF-8" standalone="no"?>
<!DOCTYPE svg PUBLIC "-//W3C//DTD SVG 1.1//EN" "http://www.w3.org/Graphics/SVG/1.1/DTD/svg11.dtd">
<!-- Created with Vectornator (http://vectornator.io/) -->
<svg height="100%" stroke-miterlimit="10" style="fill-rule:nonzero;clip-rule:evenodd;stroke-linecap:round;stroke-linejoin:round;" version="1.1" viewBox="0 0 2992 1934" width="100%" xml:space="preserve" xmlns="http://www.w3.org/2000/svg" xmlns:vectornator="http://vectornator.io" xmlns:xlink="http://www.w3.org/1999/xlink">
<defs/>
<g id="Calque-1" vectornator:layerName="Calque 1">
<g opacity="1" vectornator:layerName="Courbe 1">
<path d="M1112.95 541.4C1112.95 770.664 1110.13 996.941 1095.87 1225.56C1095.39 1233.31 1094.77 1319.51 1089.58 1320.59C1082.45 1322.08 1082.64 1228.39 1079.29 1220.01C1070.66 1198.44 1079.29 1266.49 1079.29 1289.72C1079.29 1340.43 1133.63 1416.29 1089.63 1441.49C1088.61 1442.08 1053.27 1351.19 1063.17 1339.51C1082.1 1317.16 1086.07 1394.26 1081 1395.17C1079.43 1395.45 1064.13 1266.51 1091.23 1326.81C1143.8 1443.79 1090.06 1183.1 1090.06 1090.35C1090.06 891.082 1073.78 436.823 1107.59 388.857C1118.55 373.301 1186.71 631.843 1151.15 651.19C1143.51 655.346 1124.53 525.819 1120.77 504.38C1117.59 486.208 1106.74 432.95 1115.27 449.308C1213.59 637.833 1118.06 921.394 1118.06 1118.21C1118.06 1160.52 1095.86 1492.69 1070.88 1426.37" fill="#ffad5b" fill-rule="nonzero" stroke="none"/>
<path d="M1107.62 335.625C1105.93 335.651 1104.24 335.762 1102.56 335.969C1098.91 336.42 1095.28 337.212 1091.78 338.344C1088.55 339.389 1085.42 340.835 1082.44 342.469C1079.74 343.948 1077.22 345.737 1074.81 347.656C1072.65 349.385 1070.67 351.344 1068.78 353.375C1067.22 355.058 1065.88 356.917 1064.5 358.75C1062.65 361.196 1061.1 363.959 1059.66 366.656C1054.21 376.846 1050.92 388.077 1048.44 399.312C1044.49 417.192 1042.41 435.504 1040.75 453.719C1038.53 478.068 1037.28 502.478 1036.34 526.906C1033.82 592.984 1033.72 659.165 1034.06 725.281C1034.58 825.788 1036.73 926.282 1037.91 1026.78C1038.09 1042.13 1038.23 1057.46 1038.31 1072.81C1038.35 1080.43 1038.3 1088.07 1038.44 1095.69C1038.56 1102.55 1038.89 1109.4 1039.31 1116.25C1040.38 1133.41 1042.09 1150.51 1043.97 1167.59C1044.28 1170.42 1044.68 1173.24 1045 1176.06C1044.79 1176.22 1044.56 1176.37 1044.34 1176.53C1041.37 1178.78 1038.9 1181.64 1036.5 1184.5C1034.69 1186.65 1033.24 1189.08 1031.81 1191.5C1030.82 1193.18 1030.03 1194.96 1029.25 1196.75C1027.51 1200.73 1026.38 1205.01 1025.66 1209.28C1024.25 1217.57 1024.52 1226.08 1024.94 1234.44C1025.44 1244.66 1026.28 1254.86 1027.03 1265.06C1027.53 1271.77 1028.04 1278.47 1028.31 1285.19C1028.48 1289.27 1028.58 1293.36 1028.78 1297.44C1028.06 1299.52 1027.36 1301.58 1026.84 1303.72C1023.3 1307.49 1020.15 1311.57 1017.66 1316.12C1016.24 1318.72 1014.96 1321.71 1013.97 1324.5C1006.87 1344.61 1011.51 1367.1 1016.78 1387.09C1017.98 1391.64 1019.3 1396.16 1020.66 1400.66C1021.09 1402.09 1021.59 1403.51 1022.03 1404.94C1016.57 1417.41 1015.81 1431.96 1021.12 1445.66C1025.82 1457.55 1032.38 1468.4 1042.66 1476.34C1044.15 1477.5 1045.68 1478.62 1047.28 1479.62C1049.16 1480.8 1051.1 1481.89 1053.09 1482.84C1055.2 1483.85 1057.35 1484.76 1059.56 1485.5C1061.95 1486.29 1064.37 1486.97 1066.84 1487.44C1068.87 1487.82 1070.94 1487.98 1073 1488.16C1074.8 1489.16 1076.62 1490.16 1078.41 1491.19C1087.52 1490.73 1096.7 1490.91 1105.75 1489.81C1108.12 1489.52 1110.18 1488.05 1112.38 1487.09C1113.22 1486.73 1114.01 1486.23 1114.81 1485.78C1116.93 1484.6 1119.01 1483.28 1121 1481.91C1121.98 1481.23 1122.96 1480.55 1123.91 1479.84C1124.86 1479.13 1125.79 1478.41 1126.72 1477.66C1127.67 1476.88 1128.61 1476.1 1129.53 1475.28C1141.82 1464.39 1150.5 1449.95 1154.66 1434.09C1157.11 1424.72 1157.98 1414.98 1157.69 1405.31C1157.46 1397.82 1156.39 1390.46 1155.03 1383.12C1156.69 1380.58 1158.19 1377.95 1159.44 1375.19C1164.93 1363.01 1165.8 1349.39 1165.62 1336.22C1165.42 1320.61 1163.92 1305.01 1162.31 1289.5C1161.89 1285.45 1161.35 1281.42 1160.91 1277.38C1161.15 1274.7 1161.45 1272.02 1161.69 1269.34C1165.11 1231.01 1167.97 1192.59 1170 1154.16C1170.53 1144.18 1171.02 1134.21 1171.25 1124.22C1171.34 1120.33 1171.31 1116.45 1171.34 1112.56C1171.42 1104.76 1171.65 1096.95 1172 1089.16C1172.94 1067.99 1174.73 1046.86 1176.91 1025.78C1181.04 985.849 1186.57 946.097 1191.91 906.312C1203.08 823 1213.99 739.011 1212.75 654.781C1212.68 649.943 1212.47 645.094 1212.31 640.25C1213.44 632.852 1213.97 625.342 1214.09 617.938C1214.28 606.229 1213.59 594.497 1212.5 582.844C1211.32 570.304 1209.63 557.813 1207.66 545.375C1202.37 512.061 1195.14 479.029 1186.47 446.438C1182.27 430.654 1177.73 414.923 1172.44 399.469C1168.82 388.907 1164.93 378.3 1159.59 368.469C1154.75 359.55 1148.35 351.353 1139.94 345.531C1138.44 344.496 1136.91 343.503 1135.31 342.625C1133.4 341.573 1131.46 340.557 1129.44 339.75C1126.91 338.742 1124.34 337.821 1121.69 337.188C1118.73 336.482 1115.72 335.946 1112.69 335.75C1111 335.641 1109.32 335.599 1107.62 335.625Z" fill="#ffad5b" stroke="none"/>
</g>
<path d="M604.312 425.375C304.448 425.375 61.4687 669.28 61.4688 968.188C61.4688 1089.66 105.479 1212.1 171 1291.97C194.913 1319.71 220.728 1335.97 247.031 1335.97C264.727 1335.97 284.811 1327.85 300.594 1310.16C206.856 1242.24 144.688 1106.42 144.688 968.688C144.688 712.823 350.339 505.718 603.812 505.719C857.286 505.719 1062.94 713.301 1062.94 968.688C1062.94 1216.42 861.596 1431.63 639.688 1431.62C544.515 1431.62 479.469 1380.44 479.469 1307.75C479.469 1247.97 515.336 1198.24 603.812 1124.59C657.377 1163.33 714.3 1193.45 762.125 1211.62C835.776 1239.36 871.637 1221.65 883.594 1171.44C818.073 1153.74 739.15 1115.97 670.281 1067.19C742.497 1000.23 797.501 922.278 797.5 828.062C797.5 714.238 712.864 630.563 603.344 630.562C493.824 630.562 410.594 714.238 410.594 828.062C410.594 919.409 465.128 1003.11 537.344 1070.06C426.867 1165.23 387.656 1234.57 387.656 1313C387.656 1427.3 490.959 1508.62 633 1508.62C868.778 1508.62 1143.78 1291.02 1143.78 967.719C1145.22 668.811 903.699 425.375 604.312 425.375ZM604.781 717.125C665.041 717.125 707.125 761.106 707.125 832.844C707.125 900.277 663.128 958.627 604.781 1013.62C544.521 958.148 503.375 894.539 503.375 832.844C503.375 761.106 544.521 717.126 604.781 717.125ZM2518.25 791.25C2496.25 791.25 2482.41 807.023 2482.41 824.719C2482.41 834.284 2486.22 844.323 2492.44 854.844C2479.52 862.974 2468.06 873.491 2468.06 891.188C2468.54 914.144 2489.58 928.031 2512.53 928.031C2526.4 928.031 2538.83 922.765 2548.88 914.156C2556.05 919.895 2562.27 924.202 2566.09 926.594L2591.91 926.594C2588.56 923.724 2575.64 913.195 2560.81 900.281C2564.16 894.542 2567.04 888.32 2569.44 881.625C2572.79 871.582 2572.77 858.184 2557.47 856.75C2555.56 869.185 2551.74 879.245 2547.44 887.375C2538.35 878.288 2529.74 869.19 2522.09 859.625C2537.4 850.538 2552.69 841.473 2552.69 822.344C2552.69 804.648 2538.81 791.249 2518.25 791.25ZM2518.75 810.375C2526.4 810.375 2531.66 815.629 2531.66 823.281C2531.66 832.846 2522.56 838.118 2511.56 844.812C2507.26 837.639 2504.87 830.936 2504.88 824.719C2504.4 816.11 2510.14 810.374 2518.75 810.375ZM2503.91 870.156C2512.99 881.156 2523.99 892.163 2534.03 901.25C2528.29 905.554 2521.13 907.938 2514.44 907.938C2502 907.938 2492.44 900.75 2492.44 889.75C2492.92 881.62 2497.21 875.896 2503.91 870.156ZM1813.31 1003.59C1748.75 1003.59 1701.41 1052.86 1701.41 1119.81C1701.41 1186.29 1748.75 1236.03 1813.31 1236.03C1840.57 1236.03 1864.97 1227.39 1884.09 1210.66L1863.06 1178.16C1850.15 1191.07 1833.89 1197.28 1815.72 1197.28C1774.11 1197.28 1743.5 1164.77 1743.5 1119.81C1743.5 1075.34 1774.59 1042.31 1815.72 1042.31C1832.94 1042.31 1847.76 1048.05 1860.19 1058.09L1880.28 1025.59C1860.19 1011.25 1838.18 1003.59 1813.31 1003.59ZM2463.25 1003.59C2398.69 1003.59 2351.34 1052.86 2351.34 1119.81C2351.34 1186.29 2398.69 1236.03 2463.25 1236.03C2490.51 1236.03 2514.9 1227.39 2534.03 1210.66L2513 1178.16C2500.09 1191.07 2483.83 1197.28 2465.66 1197.28C2424.05 1197.28 2393.44 1164.77 2393.44 1119.81C2393.44 1075.34 2424.53 1042.31 2465.66 1042.31C2482.87 1042.31 2497.69 1048.05 2510.12 1058.09L2530.22 1025.59C2510.13 1011.25 2488.12 1003.59 2463.25 1003.59ZM1572.75 1004.53C1508.66 1004.53 1461.31 1053.79 1461.31 1120.75C1461.31 1187.71 1509.14 1236.97 1572.75 1236.97C1594.75 1236.97 1613.41 1231.23 1632.06 1217.84L1635.88 1233.16L1669.84 1233.16L1669.84 1009.31L1648.31 1009.31L1635.88 1026.53C1615.79 1011.23 1596.66 1004.53 1572.75 1004.53ZM1575.16 1042.31C1596.68 1042.31 1615.33 1051.41 1628.72 1067.19L1628.72 1172.88C1614.85 1188.66 1596.68 1197.28 1575.16 1197.28C1533.55 1197.28 1503.41 1164.77 1503.41 1119.81C1503.41 1075.34 1534.03 1042.31 1575.16 1042.31ZM1997.44 1004.53C1933.35 1004.53 1886 1053.79 1886 1120.75C1886 1187.71 1933.83 1236.97 1997.44 1236.97C2019.44 1236.97 2038.1 1231.23 2056.75 1217.84L2060.56 1233.16L2094.53 1233.16L2094.53 1009.31L2073 1009.31L2060.56 1026.53C2040.48 1011.23 2021.35 1004.53 1997.44 1004.53ZM1999.84 1042.31C2021.37 1042.31 2040.01 1051.41 2053.41 1067.19L2053.41 1172.88C2039.54 1188.66 2021.37 1197.28 1999.84 1197.28C1958.24 1197.28 1928.1 1164.77 1928.09 1119.81C1928.09 1075.34 1958.71 1042.31 1999.84 1042.31ZM2646.44 1004.53C2580.92 1004.53 2536.44 1054.76 2536.44 1120.28C2536.44 1188.67 2585.22 1236.5 2649.78 1236.5C2689 1236.5 2723.9 1217.37 2741.59 1187.72L2712.91 1164.28C2696.65 1186.28 2674.65 1197.75 2649.78 1197.75C2614.39 1197.75 2589.53 1178.13 2581.41 1144.66C2639.75 1146.57 2696.17 1138.92 2752.12 1120.75L2752.12 1115.5C2751.65 1049.02 2708.13 1004.53 2646.44 1004.53ZM2646.44 1043.28C2678 1043.28 2700 1060.99 2707.66 1093.03C2673.7 1104.03 2637.35 1108.8 2579 1111.19C2582.35 1069.58 2607.7 1043.28 2646.44 1043.28ZM2851.59 1004.53C2805.68 1004.53 2770.78 1029.42 2770.78 1069.59C2770.78 1143.72 2888.44 1133.66 2888.44 1172.88C2888.44 1186.27 2875.03 1197.75 2846.81 1197.75C2829.12 1197.75 2805.22 1192.97 2783.22 1175.75L2766.97 1209.72C2787.06 1225.5 2816.69 1236.5 2848.25 1236.5C2897.03 1236.5 2930.53 1209.71 2930.53 1170.97C2931.01 1096.84 2812.87 1104.02 2812.88 1066.72C2812.88 1055.24 2823.86 1043.28 2853.03 1043.28C2868.81 1043.28 2888.91 1047.11 2908.03 1060.5L2924.31 1026.53C2906.14 1013.62 2878.85 1004.53 2851.59 1004.53ZM1250.91 1008.38L1332.19 1232.19L1378.59 1232.19L1459.91 1008.38L1414.47 1008.38L1356.59 1183.41L1297.75 1008.38L1250.91 1008.38ZM2135.19 1008.38L2135.19 1232.19L2176.31 1232.19L2176.31 1084.88L2289.66 1232.19L2319.78 1232.19L2319.78 1008.38L2279.12 1008.38L2279.12 1156.16L2165.78 1008.38L2135.19 1008.38Z" fill="#f27c54" fill-rule="nonzero" opacity="1" stroke="none" vectornator:layerName="Courbe 1"/>
</g>
<g id="Calque-2" vectornator:layerName="Calque 2">
<path d="M1351.13 850.993L1348.35 851.641C1350.63 851.183 1348.35 851.641 1347.96 851.641C1346.11 851.774 1344.25 851.774 1342.4 851.641C1345.11 851.945 1339.89 850.917 1339.35 850.726L1337.33 850.078C1336 849.621 1338.32 850.726 1336.19 849.583C1334.49 848.732 1332.84 847.791 1331.24 846.763C1330.43 846.261 1329.66 845.714 1328.91 845.125C1329.48 845.582 1330.32 846.496 1328.49 844.667C1326.66 842.838 1325.79 842.038 1324.49 840.857C1324.49 840.857 1322.97 839.066 1323.81 840.133C1324.64 841.2 1322.7 838.494 1322.51 838.228C1313.86 824.891 1312.79 808.429 1311.46 792.501C1310.54 783.335 1310.32 774.112 1310.81 764.913C1311.06 761.05 1311.68 757.221 1312.68 753.481C1313.29 751.271 1314.01 749.099 1314.74 746.927C1314.74 746.508 1315.8 744.374 1314.74 746.622C1315.19 745.593 1315.69 744.603 1316.19 743.612C1317.73 740.65 1319.47 737.787 1321.37 735.038C1321.6 734.695 1323.01 732.904 1321.56 734.733C1322.13 734.009 1322.7 733.323 1323.31 732.637C1324.61 731.113 1326.02 729.627 1327.46 728.179C1328.91 726.731 1329.75 725.969 1330.93 724.902C1331.27 724.635 1335.31 721.32 1333.41 722.806C1336.57 720.42 1339.87 718.244 1343.32 716.29C1349.18 712.75 1355.52 710.056 1362.14 708.288C1365.57 707.259 1369.08 706.383 1372.58 705.697C1373.08 705.697 1378.49 704.706 1375.86 705.087C1378.26 704.744 1380.7 704.554 1383.1 704.439C1385.5 704.325 1387.56 704.439 1389.8 704.439C1391 704.603 1392.21 704.692 1393.42 704.706C1395.6 705.087 1397.65 705.811 1399.79 706.383C1400.36 706.383 1402.3 707.45 1399.79 706.383C1400.7 706.802 1401.62 707.297 1402.53 707.793C1403.45 708.288 1403.94 708.631 1404.63 709.05C1405.31 709.469 1407.07 710.727 1405.62 709.66C1404.17 708.593 1407.26 711.108 1407.83 711.641C1408.95 712.755 1410.02 713.925 1411.03 715.147C1409.28 713.089 1410.65 714.576 1411.03 715.147C1411.41 715.719 1412.17 716.824 1412.71 717.662C1413.24 718.5 1414.34 720.444 1415.07 721.892C1415.49 722.692 1417.05 726.045 1415.94 723.53C1417.32 726.809 1418.45 730.184 1419.34 733.628C1420.14 736.715 1420.82 739.801 1421.36 742.926C1421.36 743.726 1422.08 748.527 1421.74 745.365C1421.97 747.219 1422.16 749.086 1422.31 750.966C1423.72 768.571 1423.83 785.261 1418.5 801.456C1418.12 802.561 1417.77 803.628 1417.39 804.695C1417.01 805.762 1415.87 808.239 1416.86 806.105C1416.02 807.934 1415.14 809.915 1414.19 811.478C1413.24 813.04 1412.17 814.983 1411.11 816.66C1410.61 817.422 1410.11 818.146 1409.58 818.87C1409.58 818.87 1407.41 821.842 1408.29 820.699C1409.16 819.556 1407.52 821.614 1407.3 821.88L1405.05 824.433C1403.68 825.919 1402.27 827.367 1400.78 828.777C1399.29 830.187 1397.69 831.521 1396.17 832.893C1394.64 834.265 1395.33 833.617 1395.83 833.236C1394.91 833.922 1394 834.608 1393.04 835.255C1389.64 837.652 1386.07 839.817 1382.37 841.733C1380.51 842.724 1378.56 843.638 1376.73 844.477C1378.75 843.562 1376.73 844.477 1376.24 844.477L1372.96 845.696C1368.98 847.085 1364.9 848.205 1360.77 849.049L1358.02 849.545C1357.11 849.545 1354.86 849.964 1356.92 849.545C1354.6 849.812 1352.23 849.964 1349.87 850.078C1341.98 850.078 1335.58 856.476 1335.58 864.368C1335.58 872.26 1341.98 878.657 1349.87 878.657C1386.64 877.095 1423.87 856.328 1440.41 822.604C1450.13 802.751 1452.22 780.688 1451.27 758.74C1451.09 741.105 1447.2 723.705 1439.84 707.678C1431.34 690.26 1414.55 678.379 1395.29 676.165C1375.48 673.688 1354.71 679.099 1336.8 687.254C1319.8 694.91 1305.28 707.172 1294.88 722.654C1283.07 740.716 1280.67 762.588 1281.89 783.622C1283.19 806.486 1284.56 832.588 1297.48 852.212C1310.39 871.836 1334.67 884.64 1358.44 878.391C1366.05 876.286 1370.51 868.413 1368.41 860.805C1366.3 853.197 1358.43 848.736 1350.82 850.84L1351.13 850.993Z" fill="#ffad5b" fill-rule="nonzero" opacity="1" stroke="none" vectornator:layerName="path"/>
<path d="M1430.88 676.203C1434.77 742.708 1433.1 809.42 1425.89 875.647C1425.09 883.268 1433.05 890.241 1440.18 889.937C1447.98 889.717 1454.25 883.446 1454.47 875.647C1461.67 809.42 1463.34 742.708 1459.46 676.203C1459.46 668.311 1453.06 661.914 1445.17 661.914C1437.28 661.914 1430.88 668.311 1430.88 676.203Z" fill="#ffad5b" fill-rule="nonzero" opacity="1" stroke="none" vectornator:layerName="path 1"/>
<path d="M1531.1 678.985L1524.66 887.155C1524.66 895.047 1531.06 901.444 1538.95 901.444C1546.84 901.444 1553.24 895.047 1553.24 887.155L1559.68 678.985C1559.62 671.119 1553.25 664.758 1545.39 664.696C1537.57 664.857 1531.26 671.161 1531.1 678.985Z" fill="#ffad5b" fill-rule="nonzero" opacity="1" stroke="none" vectornator:layerName="path 2"/>
<path d="M1564.67 727.036C1565.63 724.789 1566.76 722.623 1568.06 720.558C1568.64 719.612 1569.26 718.696 1569.93 717.814C1568.25 719.986 1571.03 716.709 1571.11 716.595C1572.67 714.961 1574.32 713.421 1576.06 711.984C1574.54 713.242 1576.29 711.984 1576.98 711.375L1579.87 709.507L1583.68 707.526C1585.86 706.345 1583.34 707.526 1584.71 707.031C1587.08 706.085 1589.51 705.308 1591.99 704.706C1593.14 704.439 1594.24 704.211 1595.38 704.02C1596.53 703.83 1593.82 704.02 1596.45 704.02C1598.99 703.852 1601.53 703.852 1604.07 704.02C1604.6 704.02 1607.62 704.554 1605.14 704.02L1608.53 704.744C1609.67 705.011 1610.78 705.354 1611.88 705.697C1611.88 705.697 1616.11 707.221 1613.67 706.192C1615.78 707.094 1617.82 708.151 1619.77 709.355C1620.95 710.079 1622.1 710.841 1623.24 711.603C1625.26 713.013 1623.01 711.337 1624.11 712.327C1625.98 713.966 1627.7 715.719 1629.41 717.51C1630.06 718.196 1630.63 718.958 1629.72 717.738C1630.52 718.804 1631.27 719.911 1631.96 721.053C1633.18 722.9 1634.22 724.851 1635.09 726.884C1633.95 724.178 1635.39 728.179 1635.47 728.37C1635.85 729.627 1636.16 730.923 1636.42 732.18C1638.53 739.788 1646.4 744.249 1654.01 742.145C1661.62 740.04 1666.08 732.167 1663.97 724.559C1658.07 697.123 1632.54 678.185 1605.48 675.441C1579.46 672.812 1550.61 688.435 1540.09 712.632C1537.01 719.72 1538 727.874 1545.2 732.18C1551.26 735.724 1561.66 734.162 1564.75 727.074L1564.67 727.036Z" fill="#ffad5b" fill-rule="nonzero" opacity="1" stroke="none" vectornator:layerName="path 3"/>
<path d="M1722.81 676.165L1727.38 884.259C1727.38 892.151 1733.78 898.548 1741.67 898.548C1749.56 898.548 1755.96 892.151 1755.96 884.259L1751.39 676.165C1751.39 668.273 1744.99 661.876 1737.1 661.876C1729.21 661.876 1722.81 668.273 1722.81 676.165Z" fill="#ffad5b" fill-rule="nonzero" opacity="1" stroke="none" vectornator:layerName="path 4"/>
<path d="M1751.35 734.467C1752.33 733.273 1753.39 732.14 1754.51 731.075C1755.2 730.427 1758.55 727.798 1756.04 729.589C1758.6 727.822 1761.27 726.218 1764.04 724.788C1766.36 723.568 1764.42 724.788 1764.04 724.788L1766.25 723.988C1767.77 723.454 1769.3 722.997 1770.82 722.578C1772.34 722.158 1773.95 721.93 1775.51 721.587C1776.19 721.587 1778.25 721.358 1775.28 721.587L1778.29 721.32C1781.31 721.111 1784.34 721.111 1787.36 721.32L1789.76 721.549C1786.79 721.282 1788.88 721.549 1789.53 721.549C1791.28 721.93 1793.04 722.235 1794.79 722.692C1796.54 723.149 1797.84 723.606 1799.32 724.14C1799.74 724.14 1802.07 725.245 1800.39 724.521C1798.71 723.797 1800.96 724.788 1801.34 725.016C1802.56 725.626 1803.78 726.236 1805.15 726.96L1807.1 728.217C1807.63 728.56 1810.26 730.847 1807.94 728.713C1809.88 730.446 1811.74 732.278 1813.5 734.2C1812.7 733.171 1814.49 735.61 1814.6 735.838C1814.72 736.067 1815.67 737.515 1816.2 738.353L1817.27 740.297C1817.27 740.297 1819.18 744.336 1818.3 742.24C1819.7 745.66 1820.78 749.208 1821.5 752.833C1821.73 753.824 1821.92 754.777 1822.11 755.767C1822.11 756.072 1822.64 759.083 1822.42 757.558C1822.19 756.034 1822.61 759.083 1822.64 759.387C1822.64 760.645 1822.87 761.902 1822.95 763.198C1824.24 781.489 1822.45 800.046 1821.69 818.337L1818.72 887.422C1818.78 895.288 1825.14 901.649 1833.01 901.711C1840.82 901.53 1847.12 895.237 1847.3 887.422L1849.7 819.365C1850.58 799.36 1852.82 778.745 1850.65 758.778C1848.59 739.916 1842.34 720.672 1827.22 708.288C1813.99 697.63 1797.36 692.085 1780.38 692.665C1762.09 693.16 1743.12 700.057 1730.85 714.271C1725.44 719.916 1725.44 728.821 1730.85 734.467C1736.44 739.997 1745.45 739.997 1751.04 734.467L1751.35 734.467Z" fill="#ffad5b" fill-rule="nonzero" opacity="1" stroke="none" vectornator:layerName="path 5"/>
<path d="M1946.26 804.085C1943.22 790.321 1941.69 776.265 1941.72 762.169C1941.81 755.461 1942.91 748.806 1945 742.431C1945.27 741.592 1945.53 740.792 1945.84 739.992C1945.84 739.992 1946.87 737.286 1946.22 738.849C1945.57 740.411 1947.17 736.905 1947.48 736.334C1948.81 733.742 1950.37 731.269 1952.13 728.941C1950.83 730.656 1952.89 728.065 1953.31 727.569C1953.73 727.074 1955.17 725.55 1956.17 724.597C1957.16 723.645 1958.49 722.387 1959.71 721.358C1960.93 720.329 1959.71 721.358 1959.48 721.358C1960.2 720.787 1960.97 720.253 1961.73 719.758C1964 718.25 1966.36 716.864 1968.78 715.604C1971.06 714.385 1967.94 715.604 1970.34 714.918C1971.83 714.385 1973.31 713.89 1974.84 713.47C1976.36 713.051 1977.43 712.861 1978.65 712.632C1979.87 712.403 1978.42 712.632 1978.15 712.632L1980.82 712.632C1982.15 712.632 1983.49 712.632 1984.82 712.632C1984.82 712.632 1987.18 712.823 1985.62 712.632C1984.06 712.442 1986.76 712.861 1987.03 712.937C1988.4 713.216 1989.74 713.573 1991.07 714.004L1993.09 714.728C1992.78 714.728 1991.53 714.004 1993.09 714.728C1994.65 715.452 1995.6 716.062 1996.9 716.824C1997.51 717.167 2000.71 719.567 1999.15 718.31C2001.48 720.284 2003.65 722.451 2005.63 724.788C2006.65 726.045 2005.63 724.788 2005.63 724.788L2006.85 726.502C2007.76 727.874 2008.64 729.246 2009.44 730.694C2012.19 736.003 2014.14 741.692 2015.23 747.575C2017.88 760.812 2019.23 774.276 2019.27 787.776C2019.53 801.151 2018.47 813.04 2012.1 824.09C2005.92 834.687 1996.69 843.182 1985.62 848.478C1984.65 848.947 1983.64 849.342 1982.61 849.659C1980.89 850.223 1979.13 850.681 1977.35 851.031L1975.03 851.488C1976.63 851.26 1975.03 851.488 1974.38 851.488C1972.66 851.488 1970.95 851.488 1969.2 851.488C1968.46 851.526 1967.72 851.526 1966.99 851.488C1968.55 851.717 1966.99 851.488 1966.38 851.488C1964.43 851.031 1962.57 850.497 1960.66 849.926C1960.66 849.926 1958.41 849.088 1959.63 849.583C1960.85 850.078 1958.22 848.897 1957.99 848.783C1956.47 848.021 1955.02 847.106 1953.57 846.23C1953.57 846.23 1951.67 844.858 1952.7 845.658C1953.73 846.458 1951.55 844.629 1951.36 844.477C1950.1 843.284 1948.92 842.011 1947.82 840.666C1948.89 841.962 1946.6 838.761 1946.26 838.151C1945.91 837.542 1944.16 833.922 1944.89 835.713C1944.22 833.904 1943.66 832.059 1943.21 830.187C1943.21 830.187 1942.71 827.787 1942.94 829.235C1943.17 830.683 1942.94 827.863 1942.94 827.558C1942.94 825.881 1942.94 824.243 1942.94 822.566C1942.94 822.833 1942.6 824.51 1942.94 822.795C1943.29 821.08 1943.44 820.47 1943.74 819.289C1945.85 811.681 1941.39 803.808 1933.78 801.703C1926.17 799.599 1918.3 804.06 1916.19 811.668C1911.57 829.457 1916.28 848.376 1928.69 861.929C1940.75 874.606 1957.79 881.313 1975.26 880.258C2011.3 877.743 2041.45 845.201 2046.51 810.411C2048.55 793.127 2048.29 775.651 2045.75 758.435C2043.5 739.611 2039.16 721.663 2027.16 706.573C2016.79 693.32 2001.2 685.204 1984.4 684.32C1968.08 684.237 1952.31 690.195 1940.12 701.048C1926.23 712.847 1917.11 729.307 1914.48 747.346C1911.24 768.99 1914.67 790.367 1918.59 811.706C1919.97 819.327 1929.19 823.595 1936.16 821.69C1943.66 819.44 1948.06 811.68 1946.14 804.085L1946.26 804.085Z" fill="#ffad5b" fill-rule="nonzero" opacity="1" stroke="none" vectornator:layerName="path 6"/>
<path d="M2030.28 689.312C2019.26 748.166 2014.47 808.016 2015.99 867.874C2015.99 875.765 2022.39 882.163 2030.28 882.163C2038.17 882.163 2044.57 875.765 2044.57 867.874C2042.99 810.586 2047.43 753.291 2057.83 696.933C2059.75 689.338 2055.35 681.578 2047.85 679.328C2040.8 677.728 2031.73 681.462 2030.24 689.312L2030.28 689.312Z" fill="#ffad5b" fill-rule="nonzero" opacity="1" stroke="none" vectornator:layerName="path 7"/>
<path d="M2098.34 699.219C2097.27 729.36 2088.92 758.702 2089.08 789.338C2089.08 813.116 2095.14 838.189 2109.62 857.433C2126.08 879.267 2156.03 896.719 2183.35 884.335C2196.15 878.505 2203.66 866.159 2207.32 853.051C2210.67 839.49 2213.08 825.714 2214.52 811.82C2216.79 794.133 2217.77 776.303 2217.45 758.473C2217.45 741.897 2217.07 725.359 2220.65 709.584C2222.76 701.976 2218.3 694.103 2210.69 691.998C2203.08 689.894 2195.21 694.355 2193.1 701.963C2186.7 730.313 2190.21 759.121 2188.49 787.776C2187.49 801.287 2185.75 814.733 2183.27 828.053C2182.36 833.426 2181.52 838.837 2180.11 844.134C2179.55 846.327 2178.88 848.49 2178.09 850.612C2179.12 847.868 2177.48 851.831 2177.33 852.06C2176.7 853.02 2176.11 854.012 2175.58 855.032C2176.8 853.47 2173.98 856.747 2174.13 856.594C2171.99 859.033 2175.73 856.099 2172.76 857.699C2172.76 857.699 2168.53 859.567 2171.04 858.69C2170.13 859.033 2169.21 859.224 2168.3 859.49C2164.75 860.595 2170.13 859.795 2166.39 859.795C2164.94 859.795 2163.5 859.795 2162.01 859.795C2157.9 859.795 2163.95 860.557 2159.95 859.452C2158.5 859.071 2157.02 858.766 2155.61 858.309C2155.61 858.309 2151.11 856.671 2153.44 857.623C2152.13 857.041 2150.86 856.392 2149.63 855.68C2147.61 854.537 2145.82 853.241 2143.76 851.869C2140.21 849.507 2145.47 853.584 2142.35 850.764L2139.34 848.059C2137.39 846.192 2135.53 844.248 2133.85 842.19C2131.07 838.99 2135.22 844.362 2132.82 840.857C2132.33 840.095 2131.79 839.371 2131.3 838.647C2129.85 836.398 2128.48 834.074 2127.22 831.711C2126.61 830.53 2126.04 829.311 2125.43 827.901C2124.21 825.462 2125.01 827.025 2125.24 827.634C2124.03 824.708 2122.97 821.719 2122.08 818.679C2120.67 813.902 2119.56 809.04 2118.76 804.123C2118.27 801.265 2118.76 803.247 2118.76 803.856C2118.76 802.523 2118.46 801.189 2118.34 799.817C2118.08 796.921 2117.92 794.025 2117.85 791.091C2117.27 760.035 2126 730.123 2127.11 698.99C2126.9 691.149 2120.47 684.906 2112.63 684.93C2104.8 685.091 2098.5 691.395 2098.34 699.219Z" fill="#ffad5b" fill-rule="nonzero" opacity="1" stroke="none" vectornator:layerName="path 8"/>
<path d="M2346.48 844.134C2336.49 845.628 2326.38 842.324 2319.2 835.217C2318.07 834.13 2317 832.985 2315.99 831.788C2317.18 833.198 2315.23 830.721 2315 830.378C2313.45 828.109 2312.05 825.742 2310.81 823.29C2303.24 807.953 2300.58 790.656 2303.19 773.753C2304.31 767.976 2305.88 762.294 2307.88 756.758C2309.44 752.567 2306.66 758.892 2308.72 754.891C2309.36 753.595 2309.97 752.3 2310.7 751.08C2311.42 749.861 2311.65 749.404 2312.18 748.566C2312.72 747.727 2315.23 744.031 2314.24 745.365C2320.47 737.071 2329.58 731.404 2339.77 729.475C2348.47 727.509 2357.58 728.726 2365.46 732.904C2366.64 733.596 2367.78 734.346 2368.88 735.152C2366.56 733.476 2369.91 736.067 2370.1 736.257C2371.68 737.717 2373.16 739.283 2374.52 740.944C2372.58 738.544 2375.02 741.859 2375.21 742.164C2375.86 743.193 2376.39 744.336 2377 745.365C2378.33 747.613 2377.27 745.898 2377 745.365C2377.58 746.832 2378.06 748.334 2378.45 749.861C2378.45 750.128 2379.1 753.862 2378.79 751.233C2378.96 752.662 2379.04 754.1 2379.02 755.539C2379.11 758.012 2378.87 760.486 2378.3 762.893C2376.87 769.273 2374.76 775.482 2372.01 781.412C2360.22 808.345 2345.56 833.923 2328.26 857.699C2323.62 863.872 2327.27 873.666 2333.37 877.247C2340.69 881.515 2348.27 878.314 2352.92 872.141C2371.09 847.331 2386.28 820.473 2398.19 792.12C2405.05 776.306 2410.31 759.197 2406.04 741.897C2402.42 728.723 2394.15 717.309 2382.76 709.774C2357.22 692.055 2320.19 698.952 2298.69 719.758C2275.83 741.668 2270.27 777.259 2275.64 807.172C2278.4 824.36 2285.91 840.435 2297.32 853.584C2309.92 867.133 2328.04 874.155 2346.48 872.637C2354.1 871.875 2361.15 866.654 2360.77 858.347C2360.46 851.298 2354.44 843.105 2346.48 844.058L2346.48 844.134Z" fill="#ffad5b" fill-rule="nonzero" opacity="1" stroke="none" vectornator:layerName="path 9"/>
<path d="M2369.15 581.283C2368.77 656.325 2370.93 731.329 2375.63 806.295C2377 827.66 2378.56 849.049 2380.32 870.465C2380.48 878.289 2386.78 884.592 2394.61 884.754C2401.81 884.411 2409.54 878.429 2408.9 870.465C2402.72 795.676 2399.09 720.736 2398 645.643C2397.69 624.202 2397.6 602.762 2397.73 581.321C2397.73 573.429 2391.33 567.031 2383.44 567.031C2375.55 567.031 2369.15 573.429 2369.15 581.321L2369.15 581.283Z" fill="#ffad5b" fill-rule="nonzero" opacity="1" stroke="none" vectornator:layerName="path 10"/>
</g>
</svg>
